<svg width="940.0000000000001" height="940.0000000000001" xmlns="http://www.w3.org/2000/svg" class="icon">

 <g>
  <title>background</title>
  <rect fill="none" id="canvas_background" height="942" width="942" y="-1" x="-1"/>
 </g>
 <g>
  <title>Layer 1</title>
  <path transform="rotate(3 476.77651977539193,536.2255859375) " id="svg_1" fill="#70E5C4" d="m793.45523,573.639853c0,31.6506 -4.12834,62.95717 -12.55703,93.05963c-17.37343,61.75307 -52.46431,116.79759 -99.42416,158.25299c-0.51604,0.34402 -1.2041,0.68805 -1.72014,1.03208c-87.38317,-10.32085 -184.74316,-35.77893 -282.27516,-73.45002c-84.45892,-32.68268 -164.27347,-73.106 -231.35898,-116.79758l-1.03208,-2.58022c-3.26827,-18.92155 -4.98841,-38.01511 -4.98841,-57.62472c-0.51604,-180.95885 141.22359,-328.54695 315.81791,-329.063c174.59432,-0.68805 317.022,146.212 317.53805,327.17084z"/>
  <path id="svg_2" fill="#757575" d="m133.96691,725.69545zm686.3363,39.90727c0,0.17201 0,0.17201 0,0c-0.34403,0.86007 -0.51604,1.37611 -0.86007,2.06417c0.34403,-0.68805 0.68805,-1.37611 0.86007,-2.06417zm-686.3363,-39.90727z"/>
  <path id="svg_3" fill="#286E77" d="m898.881212,399.871149c-2.4082,-105.27263 -44.20763,-203.49269 -118.00168,-276.59869c-73.79406,-73.27801 -170.638,-112.32521 -272.64237,-109.91701c-162.55333,3.61229 -299.47656,112.49722 -351.0808,262.32152c-0.17201,0.34402 -0.17201,0.68805 -0.34403,1.03208c-14.96522,43.8636 -22.70586,91.16748 -21.67377,140.36351c0.68805,33.02671 5.33243,65.53738 13.76113,97.01596c15.82529,10.66488 32.51066,21.32975 50.0561,31.82261l-0.51604,-1.54812c-16.16933,-40.59533 -24.77003,-83.77088 -25.80212,-128.15052c-0.86007,-39.73526 4.64438,-78.0944 15.30926,-114.04535c3.78431,-12.72905 8.25668,-25.11406 13.4171,-37.15505c52.12027,-123.33412 169.60591,-210.71729 307.56123,-213.81354c91.68352,-2.06417 178.89467,33.02671 245.46413,99.08013c66.74148,66.05342 104.58458,154.98471 106.64875,250.45254c0.68806,32.16664 -2.75222,63.98925 -10.14883,94.77978c-0.51604,2.23618 -1.03209,4.47236 -1.72014,6.70855c0,0.17201 0,0.34403 -0.17202,0.51604l0,0.34403c0,0.17201 -0.17201,0.51604 -0.17201,0.68805c-0.17201,0.34403 -0.17201,0.68806 -0.34403,1.03209c-2.58021,9.8048 -5.67646,19.43759 -9.11675,28.89837c-27.52225,76.20225 -80.33059,141.91164 -148.27616,183.36704c-2.92424,1.72014 -5.16042,4.12834 -6.70855,7.05258c18.06148,3.09625 35.60692,5.67647 52.80833,7.56862c59.51688,-43.69158 106.13271,-104.75659 133.65497,-174.42231c4.81639,-12.38501 9.11674,-25.11406 12.72904,-38.01512l1.2041,-4.47236c0,-0.34403 0.17201,-0.51604 0.17201,-0.86007s0.17202,-0.68806 0.34403,-1.03209l0.17202,-0.34403c0,-0.34402 0.17201,-0.68805 0.17201,-0.86007c9.63279,-36.46699 14.10516,-73.96606 13.24509,-111.80917zm-104.24055,223.44633c-0.17202,0.68806 -0.51605,1.2041 -0.68806,1.89216c0.17201,-0.68806 0.51604,-1.37612 0.68806,-1.89216c0.17201,0 0,0 0,0z"/>
  <path id="svg_4" fill="#757575" d="m820.30321,765.60272c0,0.17201 0,0.17201 0,0c-0.34403,0.86007 -0.51604,1.37611 -0.86007,2.06417c0.34403,-0.68805 0.68805,-1.37611 0.86007,-2.06417zm124.3662,-146.38401z"/>
  <path id="svg_5" fill="#286E77" d="m1020.52763,845.7613c-16.68537,46.61582 -76.8903,71.04183 -174.76633,71.04182c-8.60071,0 -17.37343,-0.17201 -26.49018,-0.51604c-104.9286,-4.30035 -235.65933,-33.19872 -368.28221,-81.36267c-132.62288,-48.16395 -251.65664,-110.08903 -335.08348,-174.2503c-90.47943,-69.4937 -128.66656,-133.13892 -110.43306,-183.88308c10.66487,-29.75844 38.87519,-50.40013 84.1149,-61.58105c10.14883,-2.58021 20.29766,3.78431 22.70586,13.93314c2.4082,10.14883 -3.78431,20.46968 -13.76113,22.87788c-22.18982,5.50445 -50.22812,16.51335 -57.79674,37.67109c-11.52494,32.16664 24.94205,84.80295 97.87603,140.87955c11.35293,8.77273 23.39392,17.37343 36.12296,25.97413c15.8253,10.66488 32.51067,21.32975 50.05611,31.82262c68.63363,40.76734 150.51235,78.95447 238.9276,110.9491c85.49101,31.13455 170.12195,54.01243 246.84025,67.0855c18.06148,3.09625 35.60692,5.67647 52.80833,7.56862c19.95363,2.23618 39.21921,3.78431 57.62472,4.64438c91.51151,3.78431 152.92055,-13.24509 164.44549,-45.41172c11.00891,-30.79053 -21.84579,-80.33059 -88.41525,-133.48295c4.8164,-12.38502 9.11675,-25.11406 12.72905,-38.01512c0.17201,0.17201 0.51604,0.34403 0.68805,0.51604c90.1354,69.32169 128.32253,132.79489 110.08903,183.53906z"/>
  <path id="svg_6" fill="#286E77" d="m364.12179,588.08416c-22.70587,0 -41.11138,-18.57753 -41.11138,-41.11137l0,-44.55166c0,-22.70586 18.57753,-41.11137 41.11138,-41.11137c22.70586,0 41.11137,18.57752 41.11137,41.11137l0,44.55166c0,22.70586 -18.57752,41.11137 -41.11137,41.11137zm261.97749,0c-22.70586,0 -41.11137,-18.57753 -41.11137,-41.11137l0,-44.55166c0,-22.70586 18.57752,-41.11137 41.11137,-41.11137c22.70586,0 41.11137,18.57752 41.11137,41.11137l0,44.55166c0,22.70586 -18.40551,41.11137 -41.11137,41.11137z"/>
  <path id="svg_7" fill="#70E5C4" d="m963.41895,139.47136l-24.59802,-6.88056l7.39661,-22.87788c1.2041,-2.23618 0,-4.47237 -2.4082,-4.47237l-1.2041,0c-2.4082,-1.2041 -4.81639,0 -4.81639,2.23618l-7.39661,22.87788l-24.59802,-6.88056c-2.4082,-1.2041 -4.98841,0 -4.98841,2.23618l0,1.2041c-1.2041,2.23618 0,4.64438 2.4082,4.64438l24.59802,6.88056l-7.39661,22.87788c-1.2041,2.23618 0,4.47237 2.4082,4.47237l1.2041,0c2.40819,1.2041 4.81639,0 4.81639,-2.23619l7.39661,-22.87787l24.59802,6.88056c2.40819,1.2041 4.98841,0 4.98841,-2.23618l0,-1.2041c1.20409,-1.2041 0,-3.6123 -2.4082,-4.64438zm-860.07055,729.85587l-13.58912,-4.64438l4.98841,-11.35293c0,-1.2041 0,-2.23619 -1.2041,-2.23619l-1.2041,0c-1.2041,0 -2.4082,0 -2.4082,1.2041l-4.9884,12.55703l-13.58912,-4.64438c-1.2041,0 -2.4082,0 -2.4082,1.2041l0,1.2041c0,1.2041 0,2.23618 1.2041,2.23618l13.58912,4.64438l-4.98841,12.55703c0,1.2041 0,2.23619 1.2041,2.23619l1.2041,0c1.20409,0 2.40819,0 2.40819,-1.2041l4.98841,-12.55703l13.4171,4.64438c1.2041,0 2.4082,0 2.4082,-1.2041l0,-1.2041c1.37611,-1.2041 0.17201,-2.23618 -1.03208,-3.44028zm37.67109,-688.91651l-15.99732,2.23618l-2.40819,-14.79321c0,-1.2041 -1.2041,-2.23619 -3.6123,-2.23619c-1.2041,0 -2.4082,1.2041 -2.4082,3.44029l2.4082,14.79321l-14.79321,2.23618c-1.2041,0 -2.4082,1.2041 -2.4082,3.44028c0,1.2041 1.2041,2.23619 3.61229,2.23619l15.99732,-2.23619l2.40819,14.79322c0,1.2041 1.2041,2.23618 3.6123,2.23618c1.2041,0 2.4082,-1.2041 2.4082,-3.44028l-2.4082,-14.79321l15.99731,-2.23619c1.2041,0 2.4082,-1.2041 2.4082,-3.44028c-2.4082,-1.03208 -3.6123,-2.23618 -4.81639,-2.23618zm-62.26911,-48.16395c0,4.9884 3.78431,9.11674 8.25667,9.11674c4.64439,0 8.25668,-4.12834 8.25668,-9.11674s-3.61229,-9.11675 -8.25668,-9.11675c-4.64438,0 -8.25667,3.95632 -8.25667,9.11675zm856.63027,181.13085c0,6.53654 3.26827,12.55703 8.25668,15.8253c5.16042,3.26827 11.52494,3.26827 16.68536,0c5.16043,-3.26827 8.25668,-9.28876 8.25668,-15.8253c0,-6.53653 -3.09625,-12.55703 -8.25668,-15.82529c-5.16042,-3.26827 -11.52494,-3.26827 -16.68536,0c-5.16043,3.26826 -8.25668,9.28876 -8.25668,15.82529zm-781.80413,-236.17537c0,4.98841 3.78431,9.11675 8.25667,9.11675c4.64439,0 8.25668,-4.12834 8.25668,-9.11675s-3.78431,-9.11675 -8.25668,-9.11675c-4.47236,0 -8.25667,4.12834 -8.25667,9.11675zm-21.15774,855.59819c0,3.78431 2.75223,6.88056 6.19251,6.88056s6.19251,-3.09625 6.19251,-6.88056c0,-2.4082 -1.2041,-4.64438 -3.09626,-6.0205c-1.89215,-1.2041 -4.30035,-1.2041 -6.19251,0c-1.89215,1.37612 -3.09625,3.6123 -3.09625,6.0205z"/>
 </g>
</svg>